/* XPM */
static char * plcnetlogo_xpm[] = {
"32 32 543 2",
"  	c None",
". 	c #8195A9",
"+ 	c #8398AD",
"@ 	c #8297AC",
"# 	c #7E92A6",
"$ 	c #7D93A9",
"% 	c #ABC1CE",
"& 	c #A9C0CC",
"* 	c #A9BFCC",
"= 	c #7D94A9",
"- 	c #FDFFFF",
"; 	c #F7FAFD",
"> 	c #F5F9FC",
", 	c #7B91A6",
"' 	c #F7FAFC",
") 	c #B6CADA",
"! 	c #B5C9DA",
"~ 	c #7A90A5",
"{ 	c #F6F9FC",
"] 	c #B7CBDA",
"^ 	c #F8FBFC",
"/ 	c #F8FAFC",
"( 	c #F8FAFB",
"_ 	c #F4F8FB",
": 	c #7990A5",
"< 	c #7A8FA5",
"[ 	c #F6FBFE",
"} 	c #BDCFDE",
"| 	c #85A7C0",
"1 	c #86A8C1",
"2 	c #87A8C1",
"3 	c #86A7C1",
"4 	c #86A7C0",
"5 	c #86A6BF",
"6 	c #85A6BF",
"7 	c #83A4BE",
"8 	c #B9CBDB",
"9 	c #F2F7FB",
"0 	c #798FA4",
"a 	c #8399AD",
"b 	c #8096AB",
"c 	c #7D93A8",
"d 	c #7F94A9",
"e 	c #8094A9",
"f 	c #8095AA",
"g 	c #8195AA",
"h 	c #869EB3",
"i 	c #8CABC4",
"j 	c #8AA9C2",
"k 	c #89A8C1",
"l 	c #88A8C0",
"m 	c #B9CCDA",
"n 	c #F0F5F9",
"o 	c #788FA4",
"p 	c #7D91A5",
"q 	c #7C92A7",
"r 	c #ADC2CF",
"s 	c #ABC1CD",
"t 	c #ABC0CD",
"u 	c #AAC0CD",
"v 	c #AAC0CC",
"w 	c #ACC2CE",
"x 	c #7B90A5",
"y 	c #95A9BB",
"z 	c #BCCFDC",
"A 	c #B8CBD9",
"B 	c #B6C9D8",
"C 	c #ECF4F7",
"D 	c #778EA3",
"E 	c #F7FFFF",
"F 	c #F4FFFF",
"G 	c #F6FFFF",
"H 	c #F5FFFF",
"I 	c #F3FEFF",
"J 	c #768CA2",
"K 	c #FFFFFF",
"L 	c #FAFBFD",
"M 	c #FAFAFC",
"N 	c #FAFAFD",
"O 	c #B5C8D7",
"P 	c #EAF0F6",
"Q 	c #768DA2",
"R 	c #7A90A6",
"S 	c #618099",
"T 	c #69869B",
"U 	c #6C879B",
"V 	c #6C869A",
"W 	c #6B869A",
"X 	c #6B859A",
"Y 	c #6A859A",
"Z 	c #6A8499",
"` 	c #698499",
" .	c #688399",
"..	c #678399",
"+.	c #66839A",
"@.	c #64829A",
"#.	c #5F7F99",
"$.	c #ECF8FF",
"%.	c #88A9C2",
"&.	c #83A5BE",
"*.	c #B6CAD8",
"=.	c #E8EFF4",
"-.	c #758CA1",
";.	c #798EA4",
">.	c #EEFAFF",
",.	c #738DA2",
"'.	c #2079D3",
").	c #297FD4",
"!.	c #3086D7",
"~.	c #358DDC",
"{.	c #3B91DD",
"].	c #4197E1",
"^.	c #469AE2",
"/.	c #4C9DE3",
"(.	c #51A1E4",
"_.	c #56A3E4",
":.	c #5BA5E4",
"<.	c #61A6E4",
"[.	c #66A7E4",
"}.	c #6CA9E4",
"|.	c #6DA9E6",
"1.	c #6F8AA1",
"2.	c #E7F5FC",
"3.	c #778BA1",
"4.	c #8CABC6",
"5.	c #8BAAC4",
"6.	c #8AAAC2",
"7.	c #88AAC2",
"8.	c #E4ECF2",
"9.	c #748BA0",
"0.	c #E7F4FB",
"a.	c #7E96A7",
"b.	c #267DD3",
"c.	c #3287D6",
"d.	c #398FD9",
"e.	c #3E94DD",
"f.	c #4599DF",
"g.	c #489DE2",
"h.	c #4DA1E3",
"i.	c #53A4E4",
"j.	c #58A6E5",
"k.	c #5DA8E5",
"l.	c #62A9E5",
"m.	c #66ACE4",
"n.	c #6BABE4",
"o.	c #70ADE4",
"p.	c #6EACE5",
"q.	c #7892A6",
"r.	c #E0EEF8",
"s.	c #768AA4",
"t.	c #C2CFE9",
"u.	c #C0CDE7",
"v.	c #BACEE1",
"w.	c #B4D1E0",
"x.	c #B3D0DF",
"y.	c #B2CAD9",
"z.	c #E0EBF0",
"A.	c #748AA0",
"B.	c #778CA1",
"C.	c #DFEEF8",
"D.	c #869CAC",
"E.	c #2782D6",
"F.	c #358ED8",
"G.	c #3D94DC",
"H.	c #419AE0",
"I.	c #469FE2",
"J.	c #4BA3E4",
"K.	c #50A6E6",
"L.	c #55AAE7",
"M.	c #5AACE8",
"N.	c #5FADE8",
"O.	c #63AEE7",
"P.	c #68AFE7",
"Q.	c #6DB0E6",
"R.	c #71AFE6",
"S.	c #6EADE6",
"T.	c #8098AB",
"U.	c #D9E8F4",
"V.	c #7888AA",
"W.	c #56C800",
"X.	c #52C600",
"Y.	c #B6D0EC",
"Z.	c #FF6679",
"`.	c #FF6576",
" +	c #AECDDE",
".+	c #DEE8F0",
"++	c #73899F",
"@+	c #758BA0",
"#+	c #D8E9F2",
"$+	c #8EA3B1",
"%+	c #2986DA",
"&+	c #3892DC",
"*+	c #3F99E0",
"=+	c #439FE3",
"-+	c #48A4E6",
";+	c #4DA8E8",
">+	c #52ACEA",
",+	c #57AFEB",
"'+	c #5DB1EB",
")+	c #62B2EB",
"!+	c #66B4EB",
"~+	c #6CB4EA",
"{+	c #71B5E9",
"]+	c #73B3E8",
"^+	c #6FAFE9",
"/+	c #88A0B0",
"(+	c #D1E2F0",
"_+	c #7689AA",
":+	c #428E00",
"<+	c #3D8C00",
"[+	c #B6D1EF",
"}+	c #E71800",
"|+	c #E61700",
"1+	c #AECEDF",
"2+	c #DAE6EE",
"3+	c #758B9F",
"4+	c #D0E2ED",
"5+	c #95A9B7",
"6+	c #2C8CDC",
"7+	c #3A97DF",
"8+	c #409DE3",
"9+	c #45A3E7",
"0+	c #4BA9EA",
"a+	c #51ADEC",
"b+	c #57B2EE",
"c+	c #5DB5EF",
"d+	c #62B8EF",
"e+	c #68B9F0",
"f+	c #6EBAEF",
"g+	c #6AB6EB",
"h+	c #6EB6EB",
"i+	c #78B9EB",
"j+	c #73B5EA",
"k+	c #92A7B6",
"l+	c #C9DCE9",
"m+	c #7286A0",
"n+	c #BDCEE6",
"o+	c #B9CBE3",
"p+	c #B4CBDF",
"q+	c #AFD0E2",
"r+	c #AECFE0",
"s+	c #AFC9D8",
"t+	c #D8E5EB",
"u+	c #72889E",
"v+	c #73899D",
"w+	c #C9DCE8",
"x+	c #9DB1BC",
"y+	c #2E8EDF",
"z+	c #3C99E1",
"A+	c #42A1E6",
"B+	c #49A8EA",
"C+	c #4FAFED",
"D+	c #55B4F0",
"E+	c #53B5F1",
"F+	c #44AFF1",
"G+	c #3BABF0",
"H+	c #2CA2EC",
"I+	c #2DA0EB",
"J+	c #2C9BE7",
"K+	c #2B97E3",
"L+	c #2991DF",
"M+	c #2189DF",
"N+	c #9CB0BC",
"O+	c #C1D6E4",
"P+	c #6D8399",
"Q+	c #B7CAD8",
"R+	c #B3C7D6",
"S+	c #B2C7D6",
"T+	c #B1C7D6",
"U+	c #B0C6D5",
"V+	c #AFC5D2",
"W+	c #D5E0E8",
"X+	c #71889D",
"Y+	c #72889C",
"Z+	c #C1D5E4",
"`+	c #A4B7C1",
" @	c #3091E1",
".@	c #3D9EE3",
"+@	c #45A6E8",
"@@	c #4DACEE",
"#@	c #45ACEF",
"$@	c #33A9F1",
"%@	c #2FAAF3",
"&@	c #30ACF4",
"*@	c #30ACF3",
"=@	c #31A9F1",
"-@	c #31A5EE",
";@	c #31A1EB",
">@	c #309CE7",
",@	c #2E96E2",
"'@	c #248DE0",
")@	c #A6B7C1",
"!@	c #BAD0DF",
"~@	c #6B8197",
"{@	c #B4C7D5",
"]@	c #B3C5D8",
"^@	c #B7C7E0",
"/@	c #B6C6E0",
"(@	c #B2C4D7",
"_@	c #B0C3D3",
":@	c #D2DEE7",
"<@	c #70879C",
"[@	c #B9CFDF",
"}@	c #ACBEC7",
"|@	c #3295E2",
"1@	c #41A0E5",
"2@	c #44A6EA",
"3@	c #37A5EC",
"4@	c #30A6F0",
"5@	c #31ACF3",
"6@	c #31B0F7",
"7@	c #33B2FA",
"8@	c #33B1F7",
"9@	c #32ADF4",
"0@	c #32A8F1",
"a@	c #32A3EC",
"b@	c #329EE8",
"c@	c #2F98E4",
"d@	c #258FE1",
"e@	c #AEBFC7",
"f@	c #B2C9DA",
"g@	c #688095",
"h@	c #F8FFFF",
"i@	c #B4C5DE",
"j@	c #398200",
"k@	c #51900D",
"l@	c #EFFAFF",
"m@	c #B0C4D7",
"n@	c #CEDCE4",
"o@	c #6F869B",
"p@	c #708599",
"q@	c #B2C8DA",
"r@	c #B3C4CC",
"s@	c #3195E3",
"t@	c #3A9EE7",
"u@	c #2F9DE8",
"v@	c #2EA1EC",
"w@	c #2FA8F1",
"x@	c #2FADF5",
"y@	c #30B3FA",
"z@	c #30B8FE",
"A@	c #30B5FB",
"B@	c #2FAFF6",
"C@	c #2FA9F2",
"D@	c #30A5EF",
"E@	c #309FEB",
"F@	c #2E99E9",
"G@	c #2490E5",
"H@	c #B6C6D0",
"I@	c #ABC3DA",
"J@	c #687E96",
"K@	c #B1C4D6",
"L@	c #FBFFFF",
"M@	c #3C8400",
"N@	c #7EA600",
"O@	c #4F8E11",
"P@	c #B5C6E5",
"Q@	c #CDD9E8",
"R@	c #6F859B",
"S@	c #6E8499",
"T@	c #A8C2D6",
"U@	c #B8CBD2",
"V@	c #248EE1",
"W@	c #1E91E3",
"X@	c #2298E9",
"Y@	c #229DED",
"Z@	c #22A4F3",
"`@	c #22AAF7",
" #	c #23B0FC",
".#	c #23B3FF",
"+#	c #23B1FD",
"@#	c #22ABF8",
"##	c #23A5F5",
"$#	c #25A1F3",
"%#	c #299DF7",
"&#	c #2999FA",
"*#	c #238FF7",
"=#	c #C1D0E7",
"-#	c #A8BFE5",
";#	c #6A7EA4",
">#	c #B8C6EF",
",#	c #3B8300",
"'#	c #D5E175",
")#	c #78A600",
"!#	c #679B45",
"~#	c #CEDAF3",
"{#	c #7087A1",
"]#	c #6D8498",
"^#	c #A1BDD2",
"/#	c #BDD1D9",
"(#	c #E7ECEC",
"_#	c #E9ECEB",
":#	c #E9ECEA",
"<#	c #E9EBEA",
"[#	c #E9EAE9",
"}#	c #E9EAE8",
"|#	c #E9E9E8",
"1#	c #EAEBEB",
"2#	c #EFEEF6",
"3#	c #85AD44",
"4#	c #468600",
"5#	c #438500",
"6#	c #3E8300",
"7#	c #3C8300",
"8#	c #3B8400",
"9#	c #398100",
"0#	c #3A8100",
"a#	c #388000",
"b#	c #D5E380",
"c#	c #C2D855",
"d#	c #77A700",
"e#	c #72A44C",
"f#	c #7386B0",
"g#	c #6E8397",
"h#	c #9DBAD1",
"i#	c #8FAFC7",
"j#	c #8EADC6",
"k#	c #8EADC5",
"l#	c #8EADC4",
"m#	c #8DACC4",
"n#	c #8EADC7",
"o#	c #92AED5",
"p#	c #3D8400",
"q#	c #E5EE95",
"r#	c #D4E94A",
"s#	c #D4E84E",
"t#	c #D4E84F",
"u#	c #D3E84F",
"v#	c #D1E74D",
"w#	c #D7E693",
"x#	c #97BF00",
"y#	c #C4DB5B",
"z#	c #7BAD00",
"A#	c #55863C",
"B#	c #627789",
"C#	c #6C8397",
"D#	c #6B8195",
"E#	c #6A8195",
"F#	c #6A8094",
"G#	c #698094",
"H#	c #697F93",
"I#	c #677E92",
"J#	c #718699",
"K#	c #667C91",
"L#	c #667D91",
"M#	c #687E95",
"N#	c #6C7EA3",
"O#	c #3E8600",
"P#	c #D8E984",
"Q#	c #97C300",
"R#	c #98C300",
"S#	c #99C300",
"T#	c #98C400",
"U#	c #99C500",
"V#	c #C6E05F",
"W#	c #80B300",
"X#	c #458300",
"Y#	c #8095A8",
"Z#	c #7792A9",
"`#	c #AAC2CF",
" $	c #88A9BC",
".$	c #7892AB",
"+$	c #899ABF",
"@$	c #3F8600",
"#$	c #CCE66A",
"$$	c #97C800",
"%$	c #98C800",
"&$	c #99C800",
"*$	c #99C900",
"=$	c #9AC900",
"-$	c #A1CD07",
";$	c #B7DC2B",
">$	c #488A00",
",$	c #7E93A7",
"'$	c #819EB2",
")$	c #7E9BB0",
"!$	c #B6CFDA",
"~$	c #CBDCE4",
"{$	c #CADBE4",
"]$	c #7F9BB3",
"^$	c #859DC2",
"/$	c #C3E54F",
"($	c #9ACF00",
"_$	c #9BCF00",
":$	c #9ACD00",
"<$	c #9FD200",
"[$	c #80B800",
"}$	c #417C00",
"|$	c #788EA2",
"1$	c #A2BAC9",
"2$	c #94AFC0",
"3$	c #91ACBE",
"4$	c #90ABBD",
"5$	c #94AFC3",
"6$	c #A5B9D8",
"7$	c #BCE834",
"8$	c #A1DA00",
"9$	c #A2DA00",
"0$	c #A2D900",
"a$	c #A0D800",
"b$	c #9CD300",
"c$	c #9FD700",
"d$	c #7EBB00",
"e$	c #55863E",
"f$	c #748A9F",
"g$	c #BDCFD8",
"h$	c #C1D5DE",
"i$	c #AEC6D3",
"j$	c #A7C1CE",
"k$	c #A7C0CE",
"l$	c #C1D5E0",
"m$	c #C3D0E5",
"n$	c #568831",
"o$	c #468900",
"p$	c #478800",
"q$	c #468700",
"r$	c #428300",
"s$	c #A1DC00",
"t$	c #A0DC00",
"u$	c #7FBD00",
"v$	c #54843B",
"w$	c #65759D",
"x$	c #728A9D",
"y$	c #A5B7C5",
"z$	c #D6E2E7",
"A$	c #E4F0F4",
"B$	c #E4F0F3",
"C$	c #A8B8C6",
"D$	c #738AA3",
"E$	c #488800",
"F$	c #A6E500",
"G$	c #80C000",
"H$	c #3C7500",
"I$	c #5D7082",
"J$	c #698095",
"K$	c #687E94",
"L$	c #687E93",
"M$	c #697F95",
"N$	c #4B8B00",
"O$	c #86C700",
"P$	c #468400",
"Q$	c #4E8E00",
"R$	c #4A8900",
"                            . + @ @ @ @ @ @ @ @ @ @ @ + .       ",
"                          # $ % & * * * * * * * * * & % $ #     ",
"                          = - ; > > > > > > > > > > > ; - =     ",
"                          , ' ) ! ! ! ! ! ! ! ! ! ! ! ) ' ,     ",
"                          ~ { ] ^ ^ / ( ( ( ( ( ( ( ( ) _ :     ",
"                          < [ } | 1 1 2 3 4 5 5 5 6 7 8 9 0     ",
"    . a @ @ @ @ @ @ @ @ @ b c c d e f g h i j k k l 6 m n o     ",
"  p q r s t t t t t t t t u v v u t t w x y z m A A A B C D     ",
"  c E F G G G G G G G G G G G G G G H F I J K L M M N O P Q     ",
"  R H S T U V W X Y Z ` `  . .....+.@.#.$.Q %.4 5 6 &.*.=.-.    ",
"  ;.>.,.'.).!.~.{.].^./.(._.:.<.[.}.|.1.2.3.4.5.6.7.1 *.8.9.    ",
"  D 0.a.b.c.d.e.f.g.h.i.j.k.l.m.n.o.p.q.r.s.t.u.v.w.x.y.z.A.    ",
"  B.C.D.E.F.G.H.I.J.K.L.M.N.O.P.Q.R.S.T.U.V.W.X.Y.Z.`. +.+++    ",
"  @+#+$+%+&+*+=+-+;+>+,+'+)+!+~+{+]+^+/+(+_+:+<+[+}+|+1+2+++    ",
"  3+4+5+6+7+8+9+0+a+b+c+d+e+f+g+h+i+j+k+l+m+n+o+p+q+r+s+t+u+    ",
"  v+w+x+y+z+A+B+C+D+E+F+G+H+I+J+K+L+M+N+O+P+Q+R+S+T+U+V+W+X+    ",
"  Y+Z+`+ @.@+@@@#@$@%@&@*@=@-@;@>@,@'@)@!@~@{@]@^@/@(@_@:@<@    ",
"  <@[@}@|@1@2@3@4@5@6@7@8@9@0@a@b@c@d@e@f@g@h@i@j@k@l@m@n@o@    ",
"  p@q@r@s@t@u@v@w@x@y@z@A@B@C@D@E@F@G@H@I@J@K@L@M@N@O@P@Q@R@    ",
"  S@T@U@V@W@X@Y@Z@`@ #.#+#@###$#%#&#*#=#-#;#K >#,#'#)#!#~#{#    ",
"  ]#^#/#(#_#:#<#[#[#}#|#}#[#1#2#3#4#5#6#7#8#9#0#a#b#c#d#e#f#    ",
"  g#h#i#j#k#k#l#m#m#m#m#m#m#n#o#p#q#r#s#t#t#u#u#v#w#x#y#z#A#    ",
"  B#C#D#E#F#G#H#I#J#K#L#K#J#M#N#O#P#Q#R#S#S#S#S#R#T#U#U#V#W#X#  ",
"              Y#Z#`# $ $ $`#.$+$@$#$$$%$&$&$&$&$*$*$=$*$-$;$>$  ",
"            ,$'$)$!$~${$~$!$]$^$@$/$($_$_$_$_$_$_$:$:$_$<$[$}$  ",
"            |$1$2$3$4$4$4$3$5$6$@$7$8$9$9$9$9$0$a$b$b$c$d$e$    ",
"            f$g$h$i$j$k$j$i$l$m$n$o$p$p$p$p$p$q$r$s$t$u$v$w$    ",
"              x$y$z$A$B$A$z$C$D$                E$F$G$H$        ",
"                I$J$K$L$K$M$I$                  N$O$P$          ",
"                                                Q$R$            ",
"                                                                ",
"                                                                "};
